PathFileType	4	(X/Y/Z)	Patient4_TMGait_0pt3_03_right_29.trc.trc
DataRate	CameraRate	NumFrames	NumMarkers	Units	OrigDataRate	OrigDataStartFrame	OrigNumFrames
53.030303030303	53.030303030303	4	33	mm	53.030303030303	106	       141
Frame#	Time	Sacral			L.Shoulder			Chest			R.Shoulder			Neck			R.ASIS			L.ASIS			R.Thigh.Superior			R.Thigh.Lateral			R.Thigh.Inferior			R.Patella			L.Thigh.Superior			L.Thigh.Lateral			L.Thigh.Inferior			L.Patella			L.Shank.Superior			L.Shank.Lateral			L.Shank.Inferior			R.Shank.Superior			R.Shank.Lateral			R.Shank.Inferior			R.Heel			R.Midfoot.Superior			R.Midfoot.Lateral			R.Toe			L.Heel			L.Midfoot.Lateral			L.Midfoot.Superior			L.Toe			L.Elbow			L.Wrist			R.Elbow			R.Wrist			
		X1	Y1	Z1	X2	Y2	Z2	X3	Y3	Z3	X4	Y4	Z4	X5	Y5	Z5	X6	Y6	Z6	X7	Y7	Z7	X8	Y8	Z8	X9	Y9	Z9	X10	Y10	Z10	X11	Y11	Z11	X12	Y12	Z12	X13	Y13	Z13	X14	Y14	Z14	X15	Y15	Z15	X16	Y16	Z16	X17	Y17	Z17	X18	Y18	Z18	X19	Y19	Z19	X20	Y20	Z20	X21	Y21	Z21	X22	Y22	Z22	X23	Y23	Z23	X24	Y24	Z24	X25	Y25	Z25	X26	Y26	Z26	X27	Y27	Z27	X28	Y28	Z28	X29	Y29	Z29	X30	Y30	Z30	X31	Y31	Z31	X32	Y32	Z32	X33	Y33	Z33	

106	56.090000000000	701.953836332253	1001.114922597921	445.477571224737	917.648526478752	1421.641175908356	270.984736554709	1004.333860116070	1346.032209028805	437.749833293260	915.786567090932	1420.829261609267	608.125586223389	891.933600127592	1484.205503199476	428.895994435029	927.309912003539	931.773878620212	570.467391406906	921.760434667534	948.407195675009	296.870845136659	1000.849456056598	753.426862324118	539.190984623892	954.017485487988	636.977976036207	614.174664886844	1037.303625588750	589.178983901494	531.616661920780	1045.888768568419	475.453684773904	558.473070363768	978.726360625178	742.950453562847	337.401365809147	903.208046201208	618.476927593588	281.819472266972	989.331239997330	549.770730022697	354.628782581284	992.917936191948	475.296207869367	365.410587004023	954.015617346674	401.793345900843	358.593460627498	854.199495875839	298.361809787120	303.976633520090	880.870599190284	184.141559503349	379.569501929059	961.401305666880	409.793550400268	573.472820782986	835.492716564759	389.270240167382	636.059761215420	809.764555034649	277.816420536326	597.549032423025	606.727046927304	249.994658465799	568.349615308956	755.855419854164	155.101480710434	622.710801521877	647.080269784573	182.989821487112	648.341691032640	791.461682498503	33.420163775598	658.093003824430	732.657894136287	39.444031587188	416.140683081090	808.886274882727	36.116397794293	337.762535565901	892.895631262393	95.098889083178	368.267316963264	1021.071556061513	39.809822712289	341.407106363113	947.777414593976	1076.796012071715	135.211748760093	1087.266033492802	855.836941489184	151.312800146852	848.490895642878	1070.828570363547	713.116273237948	891.374857902913	815.546407822581	737.196916653204	
107	56.108857142857	701.346427275400	1000.607635626724	443.021696068531	919.355455513547	1421.711257306168	271.040587404561	1003.876569844854	1345.977126560521	438.790671780205	912.945826498532	1420.322367406552	608.204833977675	891.581776824566	1483.955346734791	428.896192549885	926.121399993333	931.871394584478	569.732367009267	922.452952285021	948.266222591926	296.020191423200	1003.228053876478	757.093438217522	537.006194672716	960.102058188717	639.674938327292	612.414016311266	1044.099001069194	593.879663260441	529.151633194972	1055.744006364741	480.071663274151	556.104305090704	978.246259003645	741.753552744310	336.032289740970	901.709282916715	617.734569224481	280.830940627169	987.179041669033	548.522965665885	353.864596753301	990.296269683782	474.207119658380	365.008429976263	950.881276295678	400.786596671776	358.230869787782	850.552931799058	297.923091664463	303.446114057389	876.018101544401	183.662681054668	379.361764403225	972.109287014635	412.864393816284	571.488288123146	846.078428729345	390.499632081335	633.379734128874	822.709035781577	278.290853971888	595.541448621533	620.022827554192	244.758039283680	565.555672871362	771.893825442372	156.047130781917	621.034312687974	662.454123046401	180.194362480487	646.308600814046	811.417113321582	34.980481717565	657.744668333729	726.929297284911	39.488746118087	415.992237420579	803.215819600664	36.062284939978	337.629883399760	887.221112476807	95.009604244648	368.166333530964	1015.402365071881	39.750174504145	341.356316391236	957.303014073893	1078.431011982674	133.887575189846	1108.138547951654	865.074595137776	151.292947232032	831.359004545114	1073.667478951245	711.724582464440	858.188337919498	815.854768568790	734.501143411056	
108	56.127714285714	700.776421496350	1000.677982142875	440.864805904351	921.141565485500	1422.099912077382	271.312621929830	1003.506820796235	1346.328837658316	440.042247187874	910.293020559252	1420.454411886647	608.390354090235	891.288886093430	1484.112999146808	429.040123573305	924.815553905217	932.327689210870	569.426708011289	923.189321550976	948.496469868302	295.604581704480	1004.711367887406	760.712741754037	535.414813997364	964.751596066507	642.527415981499	611.138930883041	1049.296262480256	598.497849189443	527.308762385777	1063.924292086763	485.001785018013	554.333238704339	977.309724851545	740.722873463231	335.001542175572	899.509287482604	617.341471776998	280.016034133240	984.165874963889	547.449741587428	353.197137021648	986.704802146268	473.391578502641	364.660442078508	946.951344142119	400.123446415331	357.886233087416	846.317303565731	297.645044657028	302.934126811308	870.880480590117	183.370341295050	379.137986987243	981.834872481691	415.912997708493	570.033806407433	856.307484256743	390.261991820379	631.459866566659	836.395531287235	277.315282306289	593.989968965914	634.598153640367	235.526761915831	563.728416890627	790.197886377639	155.378405927193	619.640521339348	680.165398528004	174.060483310949	644.910343442229	835.401811280941	36.367315997031	657.104755079658	721.182734161880	39.539365806325	415.841427835243	797.533384565835	36.012686151997	337.497305074745	881.533023504974	94.938326605754	368.041059862902	1009.721085110361	39.704162945028	341.305019501456	966.342698820860	1080.507323481464	132.956139786166	1128.577127302863	875.682673661784	151.557297510057	815.059601341696	1077.729474160913	710.361481805932	827.412878256386	818.484400257177	731.570320152001	
109	56.146571428571	700.257713147021	1001.348829964193	439.017683390091	923.035073354867	1422.814854679475	271.776121547379	1003.249947093636	1347.096115231192	441.479913397959	907.871652679615	1421.245221059339	608.662506385239	891.077860663788	1484.687906970695	429.300618401270	923.400895452371	933.164224762198	569.555580693389	923.951640369823	949.092800042912	295.636156259542	1005.308352699105	764.188501773439	534.451443798925	967.916609211265	645.425898244442	610.403592019417	1052.819328081450	602.857408158133	526.145933932076	1070.289787240686	490.104534494010	553.220910533557	975.878198247228	739.870226317855	334.363562893149	896.597855561310	617.317324212857	279.392305726465	980.265093358469	546.571550741677	352.660349200508	982.111223438954	472.862814987441	364.381318790149	942.204678761866	399.821220512110	357.568191754929	841.473264295611	297.538419402923	302.453589891248	865.449578568584	183.271640950376	378.908449765395	990.496060152585	418.864885062550	569.161172944359	866.257755383034	388.537475833508	630.423862591056	850.865804887788	274.981567591251	592.982422492006	650.795475857825	222.726711719842	562.991614703764	810.718010308592	153.187278126789	618.609887659697	700.343282188232	164.931799076539	644.222615736863	863.000723959817	37.556200367918	656.174850399202	715.422516498018	39.596683723755	415.692272611807	791.838584560193	35.970387153472	337.369814280226	875.833086972041	94.888438358134	367.896872328518	1004.027430113495	39.671940623646	341.255245931405	974.916282483915	1083.003612861251	132.392563199960	1148.429392083303	887.625749807892	152.106394707459	799.697448889740	1082.910500962328	709.002434006669	799.298558315305	823.070748293608	728.510064546888	
